<?xml version="1.0" encoding="UTF-8"?><svg id="Layer_1" xmlns="http://www.w3.org/2000/svg" viewBox="0 0 100 100"><defs><style>.cls-1{fill:#777;}</style></defs><path class="cls-1" d="M50,50.85c-14.02,0-25.42-11.4-25.42-25.42S35.98,.01,50,.01s25.42,11.4,25.42,25.41-11.4,25.42-25.42,25.42Zm0-45.88c-11.29,0-20.47,9.18-20.47,20.46s9.18,20.47,20.47,20.47,20.47-9.18,20.47-20.47S61.29,4.96,50,4.96Z"/><path class="cls-1" d="M90.74,99.99H9.26c-1.37,0-2.48-1.11-2.48-2.48,0-23.83,19.39-43.22,43.22-43.22s43.22,19.39,43.22,43.22c0,1.37-1.11,2.48-2.48,2.48Zm-78.93-4.95H88.19c-1.28-19.95-17.92-35.79-38.19-35.79S13.09,75.08,11.81,95.04Z"/><path class="cls-1" d="M66.58,89.57c-1.37,0-2.48-1.11-2.48-2.48v-12.73c0-1.37,1.11-2.48,2.48-2.48s2.48,1.11,2.48,2.48v12.73c0,1.37-1.11,2.48-2.48,2.48Z"/><path class="cls-1" d="M72.95,83.2h-12.73c-1.37,0-2.48-1.11-2.48-2.48s1.11-2.48,2.48-2.48h12.73c1.37,0,2.48,1.11,2.48,2.48s-1.11,2.48-2.48,2.48Z"/></svg>