<?xml version="1.0" encoding="utf-8"?>
<!-- Generator: Adobe Illustrator 26.5.2, SVG Export Plug-In . SVG Version: 6.00 Build 0)  -->
<svg version="1.1" id="Layer_1" xmlns="http://www.w3.org/2000/svg" xmlns:xlink="http://www.w3.org/1999/xlink" x="0px" y="0px"
	 viewBox="0 0 100 100" style="enable-background:new 0 0 100 100;" xml:space="preserve">
<style type="text/css">
	.st0{fill:#777777;}
</style>
<g>
	<path class="st0" d="M20.1,10.6C10.1,10.6,2,13,1.4,13.2c-0.8,0.2-1.4,1-1.4,1.9V81c0,0.6,0.2,1.1,0.7,1.5c0.4,0.4,1,0.5,1.5,0.5
		c16.4-2.3,46.9,6.3,47.2,6.4c0.3,0.1,0.7,0.1,1.1,0c0.3-0.1,30.8-8.8,47.2-6.4c0.6,0.1,1.1-0.1,1.6-0.5c0.4-0.4,0.7-0.9,0.7-1.5
		V15.1c0-0.8-0.6-1.6-1.4-1.9c-1.3-0.4-30.8-9.4-48.6,8.2C41.3,12.8,29.7,10.6,20.1,10.6L20.1,10.6z M3.9,16.6
		c6-1.5,30.6-6.6,44.6,8.9c0.7,0.8,2.2,0.8,2.9,0C65.5,10,90.1,15,96.1,16.6v62.2c-16.4-1.4-41.9,5.5-46.1,6.6
		c-4.2-1.2-29.7-8.1-46.1-6.6L3.9,16.6L3.9,16.6z M98.1,15.1L98.1,15.1z"/>
	<path class="st0" d="M50,22.2c-1.1,0-2,0.9-2,1.9v63.3c0,1.1,0.9,1.9,2,1.9s2-0.9,2-1.9V24.2C52,23.1,51.1,22.2,50,22.2z"/>
</g>
</svg>
