<?xml version="1.0" encoding="utf-8"?>
<!-- Generator: Adobe Illustrator 26.5.2, SVG Export Plug-In . SVG Version: 6.00 Build 0)  -->
<svg version="1.1" id="Layer_1" xmlns="http://www.w3.org/2000/svg" xmlns:xlink="http://www.w3.org/1999/xlink" x="0px" y="0px"
	 viewBox="0 0 100 100" style="enable-background:new 0 0 100 100;" xml:space="preserve">
<style type="text/css">
	.st0{fill:none;stroke:#777777;stroke-width:4;stroke-miterlimit:10;}
	.st1{fill:#777777;}
</style>
<g>
	<path class="st0" d="M95.9,19.3H4.1c-1.1,0-2,0.9-2,2v57.4c0,1.1,0.9,2,2,2h91.9c1.1,0,2-0.9,2-2V21.3C97.9,20.2,97,19.3,95.9,19.3
		z"/>
	<path class="st0" d="M96.9,19l-46,32.4c-0.5,0.4-1.3,0.4-1.8,0L3.1,19"/>
</g>
<g>
	<path class="st1" d="M-207.3,51.9c-10.1,0-18.1,2.4-18.8,2.7c-0.8,0.2-1.4,1-1.4,1.9v65.9c0,0.6,0.2,1.1,0.7,1.5
		c0.4,0.4,1,0.5,1.5,0.5c16.4-2.3,46.9,6.3,47.2,6.4c0.4,0.1,0.7,0.1,1.1,0c0.3-0.1,30.8-8.8,47.2-6.4c0.6,0.1,1.1-0.1,1.6-0.5
		c0.4-0.4,0.7-0.9,0.7-1.5V56.4c0-0.8-0.5-1.6-1.4-1.9c-1.3-0.4-30.8-9.4-48.6,8.2C-186.2,54.1-197.7,51.9-207.3,51.9L-207.3,51.9z
		 M-223.5,57.9c6-1.5,30.6-6.6,44.6,8.9c0.7,0.8,2.2,0.8,2.9,0c14-15.5,38.6-10.4,44.7-8.9v62.2c-16.4-1.4-41.9,5.5-46.1,6.6
		c-4.2-1.2-29.7-8.1-46.1-6.6L-223.5,57.9L-223.5,57.9z M-129.4,56.4L-129.4,56.4z"/>
	<path class="st1" d="M-177.5,63.6c-1.1,0-1.9,0.9-1.9,1.9v63.3c0,1.1,0.9,1.9,1.9,1.9s1.9-0.9,1.9-1.9V65.5
		C-175.5,64.4-176.4,63.6-177.5,63.6z"/>
</g>
</svg>
