<svg id="Layer_1" data-name="Layer 1" xmlns="http://www.w3.org/2000/svg" viewBox="0 0 100 100"><defs><style>.cls-1{fill:#fff;}.cls-2,.cls-4{fill:#f2f2f2;}.cls-3{fill:#82a6d7;}.cls-4{fill-rule:evenodd;}</style></defs><path class="cls-1" d="M87.22,29.24H10.44a3.3,3.3,0,0,0-3.3,3.3V88.29a3.3,3.3,0,0,0,3.3,3.3H87.22a3.31,3.31,0,0,0,3.31-3.3V32.54A3.31,3.31,0,0,0,87.22,29.24Zm-2,48.36A12.18,12.18,0,0,1,76,86.3,14.83,14.83,0,0,1,69,86.22,13.8,13.8,0,0,1,67.72,60l.31-.11a13.94,13.94,0,0,1,9.3.08,13.49,13.49,0,0,1,4.45,2.75c-.43.47-.9.91-1.34,1.36L77.9,66.57a7.38,7.38,0,0,0-3-1.75A8.1,8.1,0,0,0,66.74,67a8.68,8.68,0,0,0-2,3.25,8.34,8.34,0,0,0,0,5.36h0c0,.13.08.25.13.37a8.62,8.62,0,0,0,3,3.86A8.25,8.25,0,0,0,71,81.14a8.93,8.93,0,0,0,3.3,0,7.93,7.93,0,0,0,3-1.19s0,0,0,0a6.53,6.53,0,0,0,2.75-4.2H72.54c0-1.82,0-3.8,0-5.62h13c.1.66.17,1.18.22,1.75A16.19,16.19,0,0,1,85.19,77.6Z"/><path class="cls-1" d="M26.18,39.68H50V8.41H29.74Z"/><path class="cls-2" d="M73.83,39.68H50V8.41H70.26Zm16.7-25.34,0,.1A.38.38,0,0,1,90.53,14.34Z"/><path class="cls-1" d="M90.56,14.44l0-.1a7.54,7.54,0,0,0-7.36-5.93H70.26l3.57,31.27H97.65Z"/><path class="cls-3" d="M9.48,14.34l0,.1Z"/><path class="cls-2" d="M9.45,14.44l0-.1a7.52,7.52,0,0,1,7.36-5.93h12.9L26.17,39.68H2.35Z"/><path class="cls-4" d="M26.22,39.67a11.91,11.91,0,0,1-23.82,0Z"/><path class="cls-4" d="M50,39.67a11.91,11.91,0,1,1-23.81,0Z"/><path class="cls-4" d="M73.84,39.67a11.91,11.91,0,1,1-23.81,0Z"/><path class="cls-4" d="M97.65,39.67a11.91,11.91,0,1,1-23.81,0Z"/></svg>