<?xml version="1.0" encoding="UTF-8"?><svg id="Layer_1" xmlns="http://www.w3.org/2000/svg" viewBox="0 0 100 100"><defs><style>.cls-1{fill:#777;}</style></defs><path class="cls-1" d="M69.68,100H30.31c-.66,0-1.29-.26-1.75-.73L.73,71.43c-.46-.46-.73-1.09-.73-1.75V30.32c0-.66,.26-1.29,.73-1.75L28.56,.73C29.02,.26,29.65,0,30.31,0h39.37c.66,0,1.29,.26,1.75,.73l27.84,27.84c.46,.46,.73,1.09,.73,1.75v39.36c0,.66-.26,1.29-.73,1.75l-27.84,27.84c-.46,.46-1.09,.73-1.75,.73Zm-38.35-4.95h37.32l26.39-26.39V31.34L68.66,4.95H31.33L4.95,31.34v37.31l26.38,26.39Z"/><path class="cls-1" d="M83.6,86.08c-.64,0-1.27-.24-1.75-.73L14.75,18.25c-.97-.97-.97-2.53,0-3.5s2.53-.97,3.5,0L85.35,81.86c.97,.97,.97,2.53,0,3.5-.48,.48-1.12,.73-1.75,.73Z"/></svg>