<?xml version="1.0" encoding="UTF-8"?><svg id="Layer_1" xmlns="http://www.w3.org/2000/svg" viewBox="0 0 100 100"><defs><style>.cls-1{fill:#777;}</style></defs><path class="cls-1" d="M50,99.97C22.45,99.97,.03,77.55,.03,50S22.45,.03,50,.03s49.97,22.42,49.97,49.97-22.42,49.97-49.97,49.97Zm0-94.99C25.18,4.98,4.98,25.18,4.98,50s20.19,45.02,45.01,45.02,45.02-20.19,45.02-45.02S74.82,4.98,50,4.98Z"/><path class="cls-1" d="M61.31,50.21c-1.37,0-2.47-1.11-2.47-2.47V29.65c0-1.37,1.11-2.47,2.47-2.47s2.47,1.11,2.47,2.47v18.09c0,1.37-1.11,2.47-2.47,2.47Z"/><path class="cls-1" d="M38.69,50.21c-1.37,0-2.47-1.11-2.47-2.47V29.65c0-1.37,1.11-2.47,2.47-2.47s2.47,1.11,2.47,2.47v18.09c0,1.37-1.11,2.47-2.47,2.47Z"/><path class="cls-1" d="M50,77.35c-9.9,0-18.78-5.92-22.63-15.09-.53-1.26,.06-2.71,1.32-3.24,1.27-.53,2.71,.07,3.24,1.32,3.08,7.32,10.17,12.05,18.07,12.05s14.99-4.73,18.06-12.04c.53-1.26,2-1.84,3.24-1.32,1.26,.53,1.85,1.98,1.32,3.24-3.86,9.15-12.74,15.07-22.63,15.07Z"/></svg>