<?xml version="1.0" encoding="UTF-8"?><svg id="Layer_2" xmlns="http://www.w3.org/2000/svg" xmlns:xlink="http://www.w3.org/1999/xlink" viewBox="0 0 960 439.84"><defs><style>.cls-1,.cls-2{fill:#fff;}.cls-2{stroke:#601761;}.cls-2,.cls-3{stroke-miterlimit:10;}.cls-4{fill:#631a64;}.cls-3{fill:none;stroke:#f9f9f9;}.cls-5{fill:#f9f9f9;}.cls-6{fill:#571159;}.cls-7{fill:url(#linear-gradient);}</style><linearGradient id="linear-gradient" x1="318.88" y1="187.79" x2="666.32" y2="187.79" gradientUnits="userSpaceOnUse"><stop offset="0" stop-color="#802f81"/><stop offset="1" stop-color="#571159"/></linearGradient></defs><g id="Layer_1-2"><g><path class="cls-6" d="m237.92,407.79l-16.46,29.98-159.92-87.76,69.54-126.71,23.37,12.83-27.64,15.88,13.27,23.09-32.87,59.89c-.22.4-.07.9.33,1.12.12.07.26.1.39.1.3,0,.58-.15.73-.42l32.38-59.01,6.6,11.47-35.42,64.54c-.22.4-.07.9.32,1.12.13.07.27.1.4.1.29,0,.57-.15.73-.43l34.93-63.66,6.59,11.48-31.62,57.62c-.22.4-.07.9.33,1.12.12.07.26.1.39.1.3,0,.58-.15.73-.43l31.13-56.74,6.6,11.48-27.82,50.7c-.22.4-.08.9.32,1.12.13.07.26.1.4.1.29,0,.57-.15.72-.43l27.34-49.82,27.75,48.28-10.4,18.94c-.22.4-.07.9.33,1.12.13.07.26.1.4.1.29,0,.57-.15.72-.43l9.91-18.05,4.27,7.42-7.77,14.15c-.22.4-.07.9.33,1.12.12.07.26.11.39.11.3,0,.58-.16.73-.43l7.28-13.27,4.27,7.43-5.14,9.36c-.22.4-.07.9.33,1.12.12.07.26.1.39.1.29,0,.58-.16.73-.43l4.65-8.48,18.81,32.73,16.23-9.32Z"/><path class="cls-4" d="m144.74,270.04l-3.7,6.74-32.38,59.01c-.15.27-.43.42-.73.42-.13,0-.27-.03-.39-.1-.4-.22-.55-.72-.33-1.12l32.87-59.89,3.21-5.85c.22-.4.72-.55,1.12-.33.4.22.55.72.33,1.12Z"/><path class="cls-4" d="m161.77,265.92l-13.17,24-34.93,63.66c-.16.28-.44.43-.73.43-.13,0-.27-.03-.4-.1-.39-.22-.54-.72-.32-1.12l35.42-64.54,12.68-23.12c.22-.4.73-.55,1.12-.33.4.22.55.72.33,1.12Z"/><path class="cls-4" d="m173.12,272.15l-16.97,30.92-31.13,56.74c-.15.28-.43.43-.73.43-.13,0-.27-.03-.39-.1-.4-.22-.55-.72-.33-1.12l31.62-57.62,16.49-30.04c.22-.4.72-.54,1.12-.33.4.22.54.72.32,1.12Z"/><path class="cls-4" d="m184.48,278.39l-20.77,37.83-27.34,49.82c-.15.28-.43.43-.72.43-.14,0-.27-.03-.4-.1-.4-.22-.54-.72-.32-1.12l27.82-50.7,20.28-36.96c.22-.4.72-.54,1.12-.33.4.22.55.73.33,1.13Z"/><path class="cls-4" d="m201.55,349.54l-9.13,16.64-9.91,18.05c-.15.28-.43.43-.72.43-.14,0-.27-.03-.4-.1-.4-.22-.55-.72-.33-1.12l10.4-18.94,8.65-15.76c.21-.4.72-.54,1.12-.32s.54.72.32,1.12Z"/><path class="cls-4" d="m209.41,353.85l-11.76,21.43-7.28,13.27c-.15.27-.43.43-.73.43-.13,0-.27-.04-.39-.11-.4-.22-.55-.72-.33-1.12l7.77-14.15,11.27-20.54c.22-.4.72-.55,1.12-.33.4.22.55.72.33,1.12Z"/><path class="cls-4" d="m217.27,358.16l-14.39,26.22-4.65,8.48c-.15.27-.44.43-.73.43-.13,0-.27-.03-.39-.1-.4-.22-.55-.72-.33-1.12l5.14-9.36,13.9-25.34c.22-.4.72-.55,1.12-.33.4.22.55.72.33,1.12Z"/></g><g><rect class="cls-6" x="168.11" y="205.35" width="144.54" height="182.42" transform="translate(-115.8 159.19) rotate(-29.88)"/><path class="cls-4" d="m179.5,265.97c-.29,0-.56-.15-.72-.41-.23-.4-.09-.9.3-1.13l65.02-37.36c.39-.23.9-.09,1.13.3.23.4.09.9-.3,1.13l-65.02,37.36c-.13.07-.27.11-.41.11Z"/><path class="cls-4" d="m174.52,283.77c-.29,0-.56-.15-.72-.41-.23-.4-.09-.9.3-1.13l86.7-49.82c.4-.23.9-.09,1.13.3.23.4.09.9-.3,1.13l-86.7,49.82c-.13.07-.27.11-.41.11Z"/><path class="cls-4" d="m180.97,295c-.29,0-.56-.15-.72-.41-.23-.4-.09-.9.3-1.13l86.7-49.82c.39-.23.9-.09,1.13.3.23.4.09.9-.3,1.13l-86.7,49.82c-.13.07-.27.11-.41.11Z"/><path class="cls-4" d="m187.42,306.23c-.29,0-.56-.15-.72-.41-.23-.4-.09-.9.3-1.13l86.7-49.82c.39-.23.9-.09,1.13.3.23.4.09.9-.3,1.13l-86.7,49.82c-.13.07-.27.11-.41.11Z"/><path class="cls-4" d="m217.35,345.77c-.29,0-.56-.15-.72-.41-.23-.4-.09-.9.3-1.13l34.32-19.72c.39-.23.9-.09,1.13.3.23.4.09.9-.3,1.13l-34.32,19.72c-.13.07-.27.11-.41.11Z"/><path class="cls-4" d="m221.82,353.55c-.29,0-.56-.15-.72-.41-.23-.4-.09-.9.3-1.13l34.32-19.72c.4-.23.9-.09,1.13.3s.09.9-.3,1.13l-34.32,19.72c-.13.07-.27.11-.41.11Z"/><path class="cls-4" d="m226.28,361.32c-.29,0-.56-.15-.72-.41-.23-.4-.09-.9.3-1.13l34.32-19.72c.39-.23.9-.09,1.13.3.23.4.09.9-.3,1.13l-34.32,19.72c-.13.07-.27.11-.41.11Z"/></g><path class="cls-1" d="m319.71,187.79h345.78v194.04c0,16.56-13.44,30.01-30.01,30.01h-285.77c-16.56,0-30-13.44-30-30v-194.04h0Z"/><path class="cls-7" d="m665.49,188.61h-345.78c-.46,0-.82-.37-.82-.82s.37-.82.82-.82h345.78c.46,0,.82.37.82.82s-.37.82-.82.82Z"/><path class="cls-5" d="m359.78,354.07h-26.39c-.46,0-.82-.37-.82-.82v-12.95c0-.46.37-.82.82-.82h26.39c.46,0,.82.37.82.82v12.95c0,.46-.37.82-.82.82Zm-25.56-1.65h24.74v-11.3h-24.74v11.3Z"/><g><path class="cls-4" d="m349.6,252.69h-16.2c-.46,0-.82-.37-.82-.82v-12.95c0-.46.37-.82.82-.82h16.2c.46,0,.82.37.82.82v12.95c0,.46-.37.82-.82.82Zm-15.38-1.65h14.55v-11.3h-14.55v11.3Z"/><path class="cls-4" d="m482.92,354.07h-78.43c-.46,0-.82-.37-.82-.82v-12.95c0-.46.37-.82.82-.82h78.43c.46,0,.82.37.82.82v12.95c0,.46-.37.82-.82.82Zm-77.6-1.65h76.78v-11.3h-76.78v11.3Z"/><path class="cls-4" d="m469.49,404.28h-65c-.46,0-.82-.37-.82-.82v-40.48c0-.46.37-.82.82-.82h65c.46,0,.82.37.82.82v40.48c0,.46-.37.82-.82.82Zm-64.18-1.65h63.35v-38.83h-63.35v38.83Z"/><g><path class="cls-4" d="m600.5,252.69h-26.85c-.46,0-.82-.37-.82-.82v-12.95c0-.46.37-.82.82-.82h26.85c.46,0,.82.37.82.82v12.95c0,.46-.37.82-.82.82Zm-26.02-1.65h25.2v-11.3h-25.2v11.3Z"/><path class="cls-4" d="m600.5,281.15h-16.2c-.46,0-.82-.37-.82-.82v-8.98h-9.82c-.46,0-.82-.37-.82-.82v-12.95c0-.46.37-.82.82-.82h26.85c.46,0,.82.37.82.82v22.76c0,.46-.37.82-.82.82Zm-15.38-1.65h14.55v-21.11h-25.2v11.3h9.82c.46,0,.82.37.82.82v8.98Z"/><path class="cls-4" d="m562.33,354.07h-12.95c-.46,0-.82-.37-.82-.82v-12.95c0-.46.37-.82.82-.82h12.95c.46,0,.82.37.82.82v12.95c0,.46-.37.82-.82.82Zm-12.13-1.65h11.3v-11.3h-11.3v11.3Z"/><path class="cls-4" d="m584.3,354.07h-12.95c-.46,0-.82-.37-.82-.82v-12.95c0-.46.37-.82.82-.82h12.95c.46,0,.82.37.82.82v12.95c0,.46-.37.82-.82.82Zm-12.13-1.65h11.3v-11.3h-11.3v11.3Z"/><path class="cls-4" d="m584.3,335.09h-12.95c-.46,0-.82-.37-.82-.82v-12.95c0-.46.37-.82.82-.82h12.95c.46,0,.82.37.82.82v12.95c0,.46-.37.82-.82.82Zm-12.13-1.65h11.3v-11.3h-11.3v11.3Z"/><path class="cls-4" d="m604.65,354.07h-12.95c-.46,0-.82-.37-.82-.82v-12.95c0-.46.37-.82.82-.82h12.95c.46,0,.82.37.82.82v12.95c0,.46-.37.82-.82.82Zm-12.13-1.65h11.3v-11.3h-11.3v11.3Z"/></g></g><path class="cls-1" d="m669.99,0h-354.79c-7.3,0-13.02,6.29-12.32,13.56l16.82,174.22h345.78l16.82-174.22c.7-7.27-5.01-13.56-12.32-13.56Zm-11.09,98.04l-1.52,17.66-4.47,52.13h-323.9l-6.34-73.84-2.13-24.85-4.74-55.23h350.32l-7.22,84.13Z"/><path class="cls-2" d="m423.48,369.16c-2.01-1.53-4.87-.93-7.25-.1-9.79,3.41-16.35,10.33-24.96,15.57-2.51,1.53-5.11,2.86-7.77,4.08,4.28-6.27,8.6-12.52,12.93-18.8,8.8-12.77,16.34-27.9,22.94-42.02,1.29-2.76,2.57-5.67,2.53-8.72-.04-3.06-1.77-6.3-4.71-7.11-3.95-1.08-7.55,2.4-10.12,5.58-3,3.71-5.95,7.47-8.85,11.27,5.08-8.04,9.85-16.27,14.28-24.68,1.31-2.5,2.62-5.07,3-7.87.38-2.8-.34-5.9-2.51-7.71-1.85-1.55-4.48-1.92-6.84-1.46-4.84.95-8.46,4.87-11.64,8.63-4.42,5.22-8.8,10.48-13.06,15.81,4.06-6.26,7.98-12.61,11.75-19.04,2.3-3.93,4.37-9.42,1.06-12.55-3.04-2.88-8.06-1.11-11.5,1.29-6.7,4.68-11.89,11.12-16.7,17.78,4.04-6.67,6.11-12.95,1.54-15.45-2.92-1.6-6-.18-8.63,1.28-15.47,8.56-23.99,24.79-33.46,39.14-12.73,19.31-22.7,39.03-32.62,59.82-7.18,15.05-20.29,42.36-26.46,55.2h84.8c1.27-2.06,2.55-4.11,3.83-6.17,5.96-2.61,12.38-4.27,18.21-7.29,1.26-.66,2.47-1.35,3.63-2.07,8.49-5.3,14.46-12.31,21.46-19.69,7.8-8.23,17.5-14.54,24.15-23.86,1.17-1.65,2.31-3.39,2.71-5.37.39-1.98-.1-4.27-1.71-5.49Zm-80.58-39.05c2.69-3.67,5.38-7.34,8.07-11.01,1.12-1.53,3.5-4.32,6.22-7.71-4.66,6.24-9.58,12.48-14.29,18.72Z"/><g><path class="cls-6" d="m775.6,369.16c13.94-28.49-9.43-71.11-32.68-88.02-8.42-6.12-18.56-10.27-29.07-10.34-11.58-.08-23.45,5.29-29.72,15.02-5.24,8.13-6.2,18.47-4.38,27.97,1.82,9.5,6.21,18.3,11.05,26.67,4.45,7.7,9.34,15.15,14.62,22.31,4.64,6.29,9.68,12.44,16.05,16.99,8.51,6.08,19.4,8.98,29.71,7.21,10.31-1.77,19.83-8.41,24.43-17.8Z"/><path class="cls-5" d="m720.62,310.44c-.23,0-.45-.09-.61-.27l-28.84-31.84c-.31-.34-.28-.86.06-1.17.34-.31.86-.28,1.17.06l28.84,31.84c.31.34.28.86-.06,1.17-.16.14-.36.21-.55.21Z"/><path class="cls-5" d="m686.93,334.23c-.26,0-.52-.12-.68-.36-.26-.38-.16-.89.21-1.15l64.76-44.67c.37-.26.89-.16,1.15.21.26.38.16.89-.21,1.15l-64.76,44.67c-.14.1-.31.15-.47.15Z"/><path class="cls-5" d="m703.2,288.64h0c1.7-1.23,4.05-.95,5.42.64l7.63,8.89c1.61,1.88,1.17,4.75-.94,6.05l-.42.26c-1.74,1.08-4.02.68-5.29-.93l-7.21-9.15c-1.42-1.8-1.05-4.42.81-5.76Z"/></g><path class="cls-1" d="m861.67,439.1h-86.41c-1.27-2.06-2.55-4.11-3.83-6.17-5.96-2.61-12.38-4.27-18.21-7.29-1.26-.66-2.47-1.35-3.63-2.07-8.49-5.3-14.46-12.31-21.46-19.69-7.8-8.23-17.5-14.54-24.15-23.86-1.17-1.65-2.31-3.39-2.71-5.37-.39-1.98.1-4.27,1.71-5.49,2.01-1.53,4.87-.93,7.25-.1,9.79,3.41,16.35,10.33,24.96,15.57,2.51,1.53,5.11,2.86,7.77,4.08-4.28-6.27-8.6-12.52-12.93-18.8-8.8-12.77-16.34-27.9-22.94-42.02-1.29-2.76-2.57-5.67-2.53-8.72.04-3.06,1.77-6.3,4.71-7.11,3.95-1.08,7.55,2.4,10.12,5.58,3,3.71,5.95,7.47,8.85,11.27-5.08-8.04-9.85-16.27-14.28-24.68-1.31-2.5-2.62-5.07-3-7.87-.38-2.8.34-5.9,2.51-7.71,1.85-1.55,4.48-1.92,6.84-1.46,4.84.95,8.46,4.87,11.64,8.63,4.42,5.22,8.8,10.48,13.06,15.81-4.06-6.26-7.98-12.61-11.75-19.04-2.3-3.93-4.37-9.42-1.06-12.55,3.04-2.88,8.06-1.11,11.5,1.29,8.22,5.74,14.16,14.12,19.93,22.32,6.21,8.82,13.26,17.64,19.93,26.46-2.69-3.67-5.38-7.34-8.07-11.01-4.25-5.8-8.78-11.37-12.76-17.37-2.18-3.29-5.86-7.75-6.67-11.69-1.56-7.6,6.97-7.57,11.44-5.09,15.47,8.56,23.99,24.79,33.46,39.14,12.73,19.31,22.7,39.03,32.62,59.82,8.09,16.96,23.43,46.33,28.08,55.2Z"/><g><path class="cls-6" d="m341.49,334.23c-.17,0-.33-.05-.48-.15-.37-.27-.45-.78-.19-1.15l26.49-36.92c.27-.37.78-.45,1.15-.19.37.27.45.78.19,1.15l-26.49,36.92c-.16.22-.41.34-.67.34Z"/><path class="cls-6" d="m359.78,341.12c-.17,0-.34-.05-.49-.16-.37-.27-.44-.79-.17-1.15l24.53-33.13c.27-.37.79-.44,1.15-.17.37.27.44.79.17,1.15l-24.53,33.13c-.16.22-.41.33-.66.33Z"/><path class="cls-6" d="m380.18,354.07c-.16,0-.33-.05-.47-.15-.37-.26-.46-.78-.2-1.15l24.31-34.63c.26-.37.78-.46,1.15-.2.37.26.46.78.2,1.15l-24.31,34.63c-.16.23-.42.35-.68.35Z"/></g><g><path class="cls-6" d="m746.32,357.53c-.26,0-.52-.13-.68-.36l-23.98-35.39c-.26-.38-.16-.89.22-1.15.38-.26.89-.16,1.15.22l23.98,35.39c.26.38.16.89-.22,1.15-.14.1-.3.14-.46.14Z"/><path class="cls-6" d="m767.15,347.6c-.27,0-.53-.13-.69-.38l-25.74-39.61c-.25-.38-.14-.89.24-1.14.38-.25.89-.14,1.14.24l25.74,39.61c.25.38.14.89-.24,1.14-.14.09-.29.13-.45.13Z"/><path class="cls-6" d="m787.06,336.76c-.26,0-.51-.12-.67-.34l-26.14-36.12c-.27-.37-.18-.88.18-1.15.37-.27.89-.18,1.15.18l26.14,36.12c.27.37.18.88-.18,1.15-.15.11-.32.16-.48.16Z"/></g><g><rect class="cls-6" x="716.68" y="153.4" width="140.95" height="75.57" transform="translate(-16.56 292.18) rotate(-20.81)"/><path class="cls-4" d="m815.44,163.1c-.33,0-.65-.2-.77-.53l-4.28-11.25c-.08-.2-.07-.43.02-.63.09-.2.25-.36.46-.43l19.67-7.48c.43-.16.9.05,1.06.48l4.28,11.25c.08.2.07.43-.02.63-.09.2-.25.36-.46.43l-19.67,7.48c-.1.04-.2.05-.29.05Zm-3.21-11.6l3.69,9.71,18.13-6.89-3.69-9.71-18.13,6.89Z"/><path class="cls-4" d="m809.98,183.33c-.33,0-.65-.2-.77-.53-.16-.43.05-.9.48-1.06l31.15-11.84c.43-.16.9.05,1.06.48.16.43-.05.9-.48,1.06l-31.15,11.84c-.1.04-.2.05-.29.05Z"/><path class="cls-4" d="m813.25,191.91c-.33,0-.65-.2-.77-.53-.16-.43.05-.9.48-1.06l31.16-11.84c.43-.16.9.05,1.06.48.16.43-.05.9-.48,1.06l-31.16,11.84c-.1.04-.2.05-.29.05Z"/><path class="cls-4" d="m816.72,201.05c-.33,0-.65-.2-.77-.53-.16-.43.05-.9.48-1.06l31.16-11.84c.43-.16.9.05,1.06.48.16.43-.05.9-.48,1.06l-31.16,11.84c-.1.04-.2.05-.29.05Z"/></g><line class="cls-3" y1="439.34" x2="960" y2="439.34"/><polygon class="cls-6" points="652.91 167.83 652.24 175.7 329.69 175.7 329.02 167.83 652.91 167.83"/><g><path class="cls-5" d="m547.96,125.73h-110.73c-2.59,0-4.64-1.46-5.33-3.77-.68-2.26.1-4.8,1.99-6.67l54.77-67.94c.99-.91,2.42-1.42,3.94-1.42s2.95.52,3.94,1.42l.09.09,54.68,67.85c1.89,1.87,2.66,4.42,1.99,6.67-.69,2.32-2.74,3.77-5.33,3.77Zm-57.73-77.41l-54.62,68.46c-1.2,1.17-1.67,2.71-1.24,4.12.44,1.42,1.65,2.28,3.25,2.28h109.94c1.59,0,2.81-.86,3.25-2.28.43-1.41-.03-2.95-1.24-4.12l-.13-.14-54.49-68.32c-.6-.53-1.46-.84-2.36-.84s-1.76.3-2.36.84Z"/><path class="cls-1" d="m489.64,106.75c.01-1.54,1.31-2.7,2.99-2.7s2.92,1.16,2.93,2.7c.01,1.5-1.23,2.8-2.93,2.8s-3.01-1.3-2.99-2.8Zm.84-31.68h4.3l-.66,23.18h-3.03l-.61-23.18Z"/></g><polygon class="cls-6" points="560.64 129.19 540.21 128.36 551.92 145.43 554.64 140.36 566.27 146.6 569.54 140.51 557.91 134.27 560.64 129.19"/></g></svg>