<svg id="Layer_1" data-name="Layer 1" xmlns="http://www.w3.org/2000/svg" viewBox="0 0 100 100"><defs><style>.cls-1{fill:#fff;}</style></defs><path class="cls-1" d="M27.17,12.77V13.9h-2V12.77a4.66,4.66,0,0,0-4.64-4.64,4.67,4.67,0,0,0-4.24,2.72,4.55,4.55,0,0,0-.42,1.92V13.9h-2V12.77a6.49,6.49,0,0,1,.6-2.75,6.66,6.66,0,0,1,6.06-3.89,6.64,6.64,0,0,1,6.64,6.64Z"/><path class="cls-1" d="M95.34,13.9H27.17v1a1,1,0,0,1-2,0v-1h-9.3V31.65a3.25,3.25,0,0,0,6.49,0V21.51a1,1,0,0,1,2,0V31.65a5.25,5.25,0,0,1-10.49,0V13.9H4.66a3.06,3.06,0,0,0-3,3V71.46a3.06,3.06,0,0,0,3.05,3.05h6.1L83.24,93.76a3.47,3.47,0,0,0,.9.11,3.61,3.61,0,0,0,3.51-2.73l4.13-16.63h3.56a3.06,3.06,0,0,0,3-3.05V17A3.06,3.06,0,0,0,95.34,13.9ZM39.9,32.31H80.06a1,1,0,0,1,0,2H39.9a1,1,0,0,1,0-2Zm0,10.15H80.06a1,1,0,0,1,0,2H39.9a1,1,0,0,1,0-2Zm0,10.14H80.06a1,1,0,0,1,0,2H39.9a1,1,0,0,1,0-2ZM85.71,90.65a1.61,1.61,0,0,1-.75,1,1.56,1.56,0,0,1-1.21.17L18.55,74.51H89.72Z"/></svg>